<svg xmlns="http://www.w3.org/2000/svg" width="64" height="64" viewBox="0 0 64 64">
  <defs>
    <linearGradient id="robotGradient" x1="0%" y1="0%" x2="100%" y2="100%">
      <stop offset="0%" style="stop-color:#95a5a6;stop-opacity:1" />
      <stop offset="100%" style="stop-color:#7f8c8d;stop-opacity:1" />
    </linearGradient>
  </defs>
  <!-- Robot body -->
  <rect x="20" y="25" width="24" height="20" rx="3" fill="url(#robotGradient)" stroke="#34495e" stroke-width="2"/>
  <!-- Robot head -->
  <rect x="24" y="15" width="16" height="12" rx="2" fill="#34495e" stroke="#2c3e50" stroke-width="1"/>
  <!-- Eyes -->
  <circle cx="28" cy="21" r="2" fill="#3498db"/>
  <circle cx="36" cy="21" r="2" fill="#3498db"/>
  <!-- Mouth -->
  <rect x="30" y="24" width="4" height="1" rx="0.5" fill="#2c3e50"/>
  <!-- Arms -->
  <rect x="12" y="28" width="8" height="6" rx="3" fill="#7f8c8d"/>
  <rect x="44" y="28" width="8" height="6" rx="3" fill="#7f8c8d"/>
  <!-- Wheels -->
  <circle cx="24" cy="50" r="5" fill="#2c3e50"/>
  <circle cx="40" cy="50" r="5" fill="#2c3e50"/>
  <circle cx="24" cy="50" r="2" fill="#95a5a6"/>
  <circle cx="40" cy="50" r="2" fill="#95a5a6"/>
  <!-- Antenna -->
  <line x1="32" y1="15" x2="32" y2="10" stroke="#34495e" stroke-width="2"/>
  <circle cx="32" cy="8" r="2" fill="#e74c3c"/>
  <!-- Control panel -->
  <rect x="26" y="30" width="12" height="8" fill="#2c3e50"/>
  <circle cx="29" cy="33" r="1" fill="#e74c3c"/>
  <circle cx="32" cy="33" r="1" fill="#f1c40f"/>
  <circle cx="35" cy="33" r="1" fill="#2ecc71"/>
</svg>
