<svg xmlns="http://www.w3.org/2000/svg" width="64" height="64" viewBox="0 0 64 64">
  <defs>
    <linearGradient id="miiGradient" x1="0%" y1="0%" x2="100%" y2="100%">
      <stop offset="0%" style="stop-color:#f1c40f;stop-opacity:1" />
      <stop offset="100%" style="stop-color:#f39c12;stop-opacity:1" />
    </linearGradient>
  </defs>
  <!-- Mii head -->
  <ellipse cx="32" cy="28" rx="16" ry="18" fill="url(#miiGradient)" stroke="#e67e22" stroke-width="2"/>
  <!-- Hair -->
  <path d="M16 20 C16 12 24 8 32 8 C40 8 48 12 48 20 L48 25 C45 18 38 16 32 16 C26 16 19 18 16 25 Z" 
        fill="#8b4513"/>
  <!-- Eyes -->
  <ellipse cx="26" cy="26" rx="3" ry="4" fill="white"/>
  <ellipse cx="38" cy="26" rx="3" ry="4" fill="white"/>
  <circle cx="26" cy="26" r="2" fill="#2c3e50"/>
  <circle cx="38" cy="26" r="2" fill="#2c3e50"/>
  <!-- Nose -->
  <ellipse cx="32" cy="32" rx="1.5" ry="2" fill="#e67e22"/>
  <!-- Mouth -->
  <path d="M28 38 Q32 42 36 38" fill="none" stroke="#2c3e50" stroke-width="2" stroke-linecap="round"/>
  <!-- Body/shirt -->
  <rect x="20" y="45" width="24" height="15" rx="4" fill="#3498db"/>
  <!-- Game controller -->
  <rect x="12" y="52" width="8" height="5" rx="2" fill="#95a5a6"/>
  <circle cx="14" cy="54" r="0.8" fill="#2c3e50"/>
  <circle cx="18" cy="54" r="0.8" fill="#2c3e50"/>
  <!-- Portfolio elements -->
  <rect x="48" y="50" width="6" height="8" rx="1" fill="#e74c3c"/>
  <rect x="48" y="52" width="6" height="1" fill="white"/>
  <rect x="48" y="54" width="6" height="1" fill="white"/>
  <rect x="48" y="56" width="6" height="1" fill="white"/>
</svg>
