<svg xmlns="http://www.w3.org/2000/svg" width="64" height="64" viewBox="0 0 64 64">
  <defs>
    <linearGradient id="wiiGradient" x1="0%" y1="0%" x2="100%" y2="100%">
      <stop offset="0%" style="stop-color:#ffffff;stop-opacity:1" />
      <stop offset="100%" style="stop-color:#e8e8e8;stop-opacity:1" />
    </linearGradient>
  </defs>
  <!-- Wii console body -->
  <rect x="16" y="20" width="32" height="24" rx="6" fill="url(#wiiGradient)" stroke="#cccccc" stroke-width="2"/>
  <!-- Front panel -->
  <rect x="20" y="24" width="24" height="16" rx="2" fill="#f0f0f0"/>
  <!-- Power button -->
  <circle cx="26" cy="28" r="2" fill="#4a90e2"/>
  <!-- Disc slot -->
  <rect x="30" y="26" width="12" height="2" rx="1" fill="#333"/>
  <!-- Controller -->
  <rect x="8" y="48" width="6" height="12" rx="3" fill="white" stroke="#ccc" stroke-width="1"/>
  <circle cx="11" cy="52" r="1" fill="#4a90e2"/>
  <circle cx="11" cy="58" r="1" fill="#e74c3c"/>
  <!-- Controller 2 -->
  <rect x="50" y="48" width="6" height="12" rx="3" fill="white" stroke="#ccc" stroke-width="1"/>
  <circle cx="53" cy="52" r="1" fill="#4a90e2"/>
  <circle cx="53" cy="58" r="1" fill="#e74c3c"/>
  <!-- Menu channels representation -->
  <rect x="22" y="32" width="4" height="4" rx="1" fill="#4a90e2"/>
  <rect x="28" y="32" width="4" height="4" rx="1" fill="#2ecc71"/>
  <rect x="34" y="32" width="4" height="4" rx="1" fill="#f39c12"/>
  <rect x="40" y="32" width="4" height="4" rx="1" fill="#e74c3c"/>
</svg>
